<svg width="176" height="176" viewBox="0 0 176 176" fill="none" xmlns="http://www.w3.org/2000/svg">
<g clip-path="url(#clip0_4_1181)">
<path d="M145.665 142.702L141.546 138.793C141.338 139.012 141.111 139.208 140.901 139.423L117.286 62.1397C120.27 58.2959 122.064 53.4875 122.064 48.2583C122.064 35.7366 111.876 25.5488 99.3541 25.5488V15.1249C100.109 15.2412 100.859 15.3211 101.613 15.46L102.649 9.87604C101.483 9.66024 100.319 9.52134 99.152 9.3592C98.2042 4.05068 93.577 0 87.9985 0C82.4199 0 77.7946 4.05128 76.8467 9.35979C75.6801 9.52432 74.5159 9.66084 73.3492 9.87664L74.3853 15.4606C75.1406 15.3217 75.8899 15.2418 76.6446 15.1255V25.5494C64.123 25.5494 53.9352 35.7372 53.9352 48.2589C53.9352 53.4875 55.7295 58.2965 58.7101 62.1373L35.0946 139.42C34.8847 139.205 34.6576 139.009 34.4502 138.79L30.3309 142.699C31.2591 143.676 32.2469 144.601 33.2263 145.535L28.5086 160.978L28.3864 176L45.0243 163.521L47.2639 156.192C47.8684 156.556 48.4591 156.956 49.0666 157.296L51.8457 152.345C50.8776 151.8 49.9298 151.181 48.973 150.585L59.4249 116.387H116.571L127.02 150.588C126.064 151.184 125.119 151.803 124.148 152.347L126.927 157.298C127.537 156.955 128.125 156.554 128.729 156.194L130.969 163.524L147.612 176V161.384L142.769 145.538C143.749 144.604 144.74 143.679 145.665 142.702ZM99.3547 31.2263C108.748 31.2263 116.387 38.8651 116.387 48.2583C116.387 53.7254 113.786 58.5886 109.77 61.7051C108.106 56.0819 104.322 51.3725 99.3434 48.4854C99.3434 48.4085 99.3547 48.3352 99.3547 48.2583C99.3547 42.1325 96.9046 36.5772 92.9475 32.4865C94.9291 31.6806 97.0894 31.2263 99.3547 31.2263ZM98.4122 54.6828C101.501 57.0786 103.743 60.5051 104.618 64.4479C102.959 64.9898 101.194 65.2908 99.3547 65.2908C97.0894 65.2908 94.9291 64.8366 92.9475 64.0306C95.4626 61.4303 97.3618 58.2398 98.4122 54.6828ZM87.9997 60.9188C85.3994 58.5826 83.5144 55.4714 82.7341 51.94C84.3943 51.3981 86.16 51.097 87.9997 51.097C89.8393 51.097 91.605 51.3981 93.2653 51.94C92.4843 55.4714 90.6 58.5826 87.9997 60.9188ZM87.9997 45.4195C86.0891 45.4195 84.2441 45.6836 82.47 46.1289C82.9922 41.965 85.025 38.272 87.9997 35.5977C90.9743 38.269 93.0071 41.962 93.5293 46.1265C91.7553 45.6836 89.9103 45.4195 87.9997 45.4195ZM83.0518 64.0306C81.0703 64.8366 78.9099 65.2908 76.6446 65.2908C74.805 65.2908 73.0393 64.9898 71.379 64.4479C72.2536 60.5051 74.4962 57.0786 77.5847 54.6828C78.6375 58.2392 80.5368 61.4303 83.0518 64.0306ZM76.6446 70.9678C80.7835 70.9678 84.6554 69.8381 87.9997 67.8965C91.3439 69.8381 95.2158 70.9678 99.3547 70.9678C101.265 70.9678 103.11 70.7037 104.884 70.2584C103.831 78.6471 96.6691 85.1615 87.9997 85.1615C79.3302 85.1615 72.1683 78.6465 71.115 70.2584C72.889 70.7043 74.734 70.9678 76.6446 70.9678ZM82.3222 11.3556C82.3222 8.22477 84.8682 5.67811 87.9997 5.67811C91.1311 5.67811 93.6772 8.22417 93.6772 11.3556V26.2958C91.6617 26.818 89.757 27.6013 87.9997 28.6207C86.2423 27.5989 84.3377 26.818 82.3222 26.2958V11.3556ZM76.6446 31.2263C78.9099 31.2263 81.0703 31.6806 83.0518 32.4865C79.0947 36.5772 76.6446 42.1325 76.6446 48.2583C76.6446 48.3352 76.656 48.4085 76.656 48.4854C71.6771 51.3725 67.8929 56.0819 66.2297 61.7051C62.213 58.588 59.6127 53.7254 59.6127 48.2583C59.6127 38.8651 67.2515 31.2263 76.6446 31.2263ZM40.1366 160.089L34.0645 164.645V162.229L63.289 66.582C63.9364 67.056 64.6064 67.4959 65.3015 67.8995C65.3015 67.9788 65.2902 68.0527 65.2902 68.1296C65.2902 70.3889 65.6336 72.5666 66.25 74.6274L40.1366 160.089ZM61.1626 110.71L69.971 81.8828C74.1242 87.3136 80.65 90.8391 87.9997 90.8391C95.3493 90.8391 101.875 87.3136 106.028 81.8828L114.837 110.71H61.1626ZM141.935 164.645L135.863 160.092L109.75 74.6298C110.366 72.566 110.71 70.3889 110.71 68.129C110.71 68.0521 110.698 67.9788 110.698 67.9019C111.394 67.4989 112.064 67.056 112.711 66.5844L141.935 162.229V164.645Z" fill="black"/>
<path d="M124.173 17.2174C120.815 15.5029 117.3 14.0096 113.733 12.7864L111.896 18.1599C115.209 19.2925 118.471 20.6779 121.59 22.2731L124.173 17.2174Z" fill="black"/>
<path d="M156.713 48.0288C154.814 44.7757 152.663 41.6216 150.315 38.6613L145.867 42.1868C148.05 44.9403 150.048 47.8672 151.811 50.8872L156.713 48.0288Z" fill="black"/>
<path d="M142.647 30.2922C139.902 27.6949 136.953 25.2734 133.876 23.0988L130.597 27.7342C133.453 29.7551 136.195 32.0037 138.744 34.4168L142.647 30.2922Z" fill="black"/>
<path d="M159.688 70.3746L165.201 69.0261C164.304 65.3558 163.129 61.7224 161.713 58.2166L156.449 60.3453C157.766 63.599 158.857 66.9743 159.688 70.3746Z" fill="black"/>
<path d="M167.106 80.2137L161.457 80.7616C161.687 83.1574 161.806 85.5902 161.806 88.0004C161.806 89.1074 161.783 90.206 161.735 91.3017L167.407 91.5515C167.458 90.3735 167.484 89.1896 167.484 88.0004C167.483 85.4084 167.358 82.7884 167.106 80.2137Z" fill="black"/>
<path d="M157.835 111.953L163.206 113.793C164.432 110.222 165.406 106.528 166.107 102.821L160.526 101.768C159.875 105.211 158.97 108.638 157.835 111.953Z" fill="black"/>
<path d="M148.24 130.654L152.872 133.936C155.06 130.851 157.042 127.589 158.759 124.239L153.71 121.645C152.112 124.759 150.272 127.791 148.24 130.654Z" fill="black"/>
<path d="M104.044 160.055L105.276 165.599C109.06 164.756 112.802 163.632 116.401 162.249L114.366 156.95C111.027 158.23 107.556 159.274 104.044 160.055Z" fill="black"/>
<path d="M87.9966 161.807C86.191 161.764 84.3913 161.744 82.5915 161.614L82.1772 167.274C84.0789 167.416 86.0008 167.484 87.8887 167.484C89.9442 167.521 91.8488 167.418 93.7844 167.276L93.3755 161.616C91.6104 161.744 89.7993 161.807 87.9966 161.807Z" fill="black"/>
<path d="M59.5674 162.238C63.1841 163.626 66.9254 164.753 70.6893 165.587L71.9185 160.043C68.427 159.271 64.9552 158.224 61.6026 156.938L59.5674 162.238Z" fill="black"/>
<path d="M64.1915 18.1312L62.3608 12.7577C58.787 13.9726 55.2669 15.4599 51.903 17.1804L54.486 22.2361C57.6085 20.6409 60.8729 19.2614 64.1915 18.1312Z" fill="black"/>
<path d="M30.1837 42.1295L25.7384 38.598C23.3848 41.5614 21.2275 44.7125 19.3312 47.9602L24.2337 50.8276C25.9941 47.807 27.9983 44.883 30.1837 42.1295Z" fill="black"/>
<path d="M17.2024 124.166C18.9198 127.521 20.8984 130.783 23.0814 133.871L27.7169 130.589C25.6871 127.725 23.8504 124.694 22.2581 121.577L17.2024 124.166Z" fill="black"/>
<path d="M15.4594 101.689L9.87842 102.736C10.5765 106.452 11.5476 110.142 12.7684 113.713L18.1419 111.879C17.0069 108.567 16.1038 105.138 15.4594 101.689Z" fill="black"/>
<path d="M14.1938 87.9973C14.1938 85.5591 14.313 83.0917 14.5514 80.6762L8.90253 80.1171C8.6444 82.7227 8.51624 85.3743 8.51624 88.0003C8.51624 89.1585 8.54187 90.3108 8.59015 91.4637L14.2617 91.214C14.2164 90.1463 14.1938 89.0763 14.1938 87.9973Z" fill="black"/>
<path d="M45.4672 27.6865L42.1915 23.051C39.1143 25.2227 36.1593 27.6382 33.4111 30.2332L37.3086 34.3637C39.8636 31.953 42.6088 29.7074 45.4672 27.6865Z" fill="black"/>
<path d="M19.5786 60.2721L14.3183 58.1373C12.9019 61.6288 11.724 65.2622 10.8185 68.9332L16.3285 70.293C17.1714 66.8891 18.2641 63.5168 19.5786 60.2721Z" fill="black"/>
</g>
<defs>
<clipPath id="clip0_4_1181">
<rect width="176" height="176" fill="white"/>
</clipPath>
</defs>
</svg>
