<svg width="128" height="177" viewBox="0 0 128 177" fill="none" xmlns="http://www.w3.org/2000/svg">
<path d="M124.571 59.028H118.83V48.7849C118.83 47.4206 117.724 46.3146 116.359 46.3146H112.686V36.0715C112.686 34.7072 111.58 33.6012 110.216 33.6012H99.3622V14.6319C99.3622 13.2675 98.2562 12.1616 96.8919 12.1616H82.9524V10.4019C82.9524 9.5282 82.4907 8.71945 81.7386 8.27518L68.3114 0.343564C67.931 0.118575 67.497 0 67.055 0H59.9861C59.5441 0 59.1101 0.118575 58.7297 0.343564L45.3025 8.27518C44.5504 8.71945 44.0887 9.5282 44.0887 10.4019V12.1616H30.1489C28.7845 12.1616 27.6786 13.2675 27.6786 14.6319V33.6012H16.8251C15.4608 33.6012 14.3548 34.7072 14.3548 36.0715V46.3146H10.6813C9.31689 46.3146 8.21095 47.4206 8.21095 48.7849V59.028H2.47032C1.10594 59.028 0 60.1339 0 61.4983C0 62.8627 1.10594 63.9686 2.47032 63.9686H7.24639V174.53C7.24639 175.894 8.35233 177 9.7167 177H40.916C42.2804 177 43.3863 175.894 43.3863 174.53V107.554H44.2669C45.6313 107.554 46.7372 106.448 46.7372 105.083C46.7372 103.719 45.6313 102.613 44.2669 102.613H43.3863V98.8867C43.3863 87.7851 52.4186 78.7529 63.5205 78.7529C68.9009 78.7529 73.9578 80.8466 77.7594 84.6478C81.5607 88.4491 83.6544 93.506 83.6544 98.8867V102.613H82.7742C81.4098 102.613 80.3039 103.719 80.3039 105.083C80.3039 106.448 81.4098 107.554 82.7742 107.554H83.6544V174.53C83.6544 175.894 84.7603 177 86.1247 177H117.324C118.688 177 119.794 175.894 119.794 174.53V63.9686H124.571C125.935 63.9686 127.041 62.8627 127.041 61.4983C127.041 60.1339 125.935 59.028 124.571 59.028ZM49.0293 11.8115L60.6614 4.94063H66.38L78.0118 11.8115V12.1616H49.0293V11.8115ZM32.6196 17.1022H94.4215V33.6012H32.6196V17.1022ZM19.2958 38.5419H107.745V46.3146H19.2958V38.5419ZM13.152 51.2552H113.889V59.028H13.152V51.2552ZM12.1874 172.059V128.836H38.4461V172.059H12.1874ZM38.4461 123.896H12.1874V107.554H38.4461V123.896ZM81.2529 81.154C76.5182 76.4194 70.2208 73.8123 63.5205 73.8123C49.6944 73.8123 38.4457 85.0606 38.4457 98.8867V102.613H12.1874V63.9698H114.854V102.613H88.595V98.8867C88.595 92.1861 85.9875 85.8887 81.2529 81.154ZM114.853 107.554V123.896H88.5946V107.554H114.853ZM88.595 172.059V128.836H114.854V172.059H88.595Z" fill="black"/>
<path d="M25.3177 75.2496C20.8122 75.2496 17.1467 78.9152 17.1467 83.4207C17.1467 87.9262 20.8122 91.5917 25.3177 91.5917C29.8232 91.5917 33.4888 87.9262 33.4888 83.4207C33.4888 78.9152 29.8232 75.2496 25.3177 75.2496ZM25.3177 86.6511C23.5364 86.6511 22.0873 85.202 22.0873 83.4207C22.0873 81.6394 23.5364 80.1903 25.3177 80.1903C27.099 80.1903 28.5481 81.6394 28.5481 83.4207C28.5481 85.202 27.0986 86.6511 25.3177 86.6511Z" fill="black"/>
<path d="M39.6326 19.2711C36.2798 19.2711 33.5522 21.9987 33.5522 25.3515C33.5522 28.7043 36.2798 31.4319 39.6326 31.4319C42.9854 31.4319 45.713 28.7043 45.713 25.3515C45.713 21.9987 42.9854 19.2711 39.6326 19.2711ZM39.6326 26.4913C39.0044 26.4913 38.4928 25.9801 38.4928 25.3515C38.4928 24.7229 39.0044 24.2117 39.6326 24.2117C40.2608 24.2117 40.7723 24.7229 40.7723 25.3515C40.7723 25.9801 40.2608 26.4913 39.6326 26.4913Z" fill="black"/>
<path d="M87.4089 19.2711C84.0561 19.2711 81.3285 21.9987 81.3285 25.3515C81.3285 28.7043 84.0561 31.4319 87.4089 31.4319C90.7617 31.4319 93.4893 28.7043 93.4893 25.3515C93.4893 21.9987 90.7617 19.2711 87.4089 19.2711ZM87.4089 26.4913C86.7807 26.4913 86.2691 25.9801 86.2691 25.3515C86.2691 24.7229 86.7807 24.2117 87.4089 24.2117C88.0371 24.2117 88.5487 24.7229 88.5487 25.3515C88.5487 25.9801 88.0371 26.4913 87.4089 26.4913Z" fill="black"/>
<path d="M101.723 91.5917C106.229 91.5917 109.894 87.9262 109.894 83.4207C109.894 78.9152 106.229 75.2496 101.723 75.2496C97.2179 75.2496 93.5524 78.9152 93.5524 83.4207C93.5524 87.9262 97.2176 91.5917 101.723 91.5917ZM101.723 80.1903C103.505 80.1903 104.954 81.6394 104.954 83.4207C104.954 85.202 103.505 86.6511 101.723 86.6511C99.9421 86.6511 98.493 85.202 98.493 83.4207C98.493 81.6394 99.9421 80.1903 101.723 80.1903Z" fill="black"/>
</svg>
