<svg width="19" height="19" viewBox="0 0 19 19" fill="none" xmlns="http://www.w3.org/2000/svg">
<circle cx="9.504" cy="9.504" r="8.976" stroke="white" stroke-width="1.056"/>
<path d="M11.7704 10.9086H11.3268L11.1696 10.7575C11.7198 10.1195 12.0511 9.2911 12.0511 8.38999C12.0511 6.38067 10.4172 4.75195 8.40153 4.75195C6.38584 4.75195 4.75195 6.38067 4.75195 8.38999C4.75195 10.3993 6.38584 12.028 8.40153 12.028C9.3055 12.028 10.1365 11.6978 10.7766 11.1493L10.9282 11.306V11.7482L13.7355 14.5411L14.5721 13.7071L11.7704 10.9086ZM8.40153 10.9086C7.00346 10.9086 5.8749 9.78364 5.8749 8.38999C5.8749 6.99634 7.00346 5.87135 8.40153 5.87135C9.7996 5.87135 10.9282 6.99634 10.9282 8.38999C10.9282 9.78364 9.7996 10.9086 8.40153 10.9086Z" fill="white"/>
</svg>
