<svg width="177" height="177" viewBox="0 0 177 177" fill="none" xmlns="http://www.w3.org/2000/svg">
<g clip-path="url(#clip0_4_1244)">
<path d="M88.5 0C39.6231 0 0 39.6231 0 88.5C0 137.377 39.6231 177 88.5 177C137.377 177 177 137.377 177 88.5C177 39.6231 137.377 0 88.5 0ZM76.9369 17.7415L77.4237 17.1745C78.6571 15.7502 80.0538 14.1379 80.264 11.3667C80.4465 9.06295 79.6334 7.43677 78.7539 6.12033C81.9538 5.7442 85.2006 5.53125 88.5 5.53125C92.5516 5.53125 96.5286 5.83547 100.425 6.39689C101.15 7.30125 102.101 8.24433 103.645 8.87766C105.282 9.58289 107.215 10.1415 109.649 9.5663C110.368 9.39483 110.926 9.09061 111.408 8.75873C113.117 9.24825 114.807 9.77925 116.472 10.3739C117.055 12.0581 118.175 14.066 120.908 14.4117C122.445 14.6302 123.731 14.3895 124.857 13.9056C148.296 25.3525 165.517 47.5162 170.186 74.0137C169.732 74.9706 169.666 75.9109 169.652 76.5055C169.646 76.6714 169.66 76.8401 169.674 76.8844C169.574 77.0392 169.447 77.1195 168.83 77.4154C168.125 77.7555 167.163 78.2202 166.275 79.155C165.265 80.1976 164.801 81.2292 164.427 82.0589C164.137 82.706 163.971 83.0573 163.67 83.3587C163.476 83.5468 163.1 83.6602 162.508 83.8316C161.352 84.1635 159.607 84.6641 158.434 86.5641C157.32 88.3589 157.414 90.0183 157.48 91.2297C157.489 91.368 157.5 91.509 157.505 91.6528C157.292 91.7579 157.032 91.8658 156.761 91.9543C156.922 91.0803 156.944 89.8717 156.161 88.63C155.105 87.0176 153.708 86.7742 152.972 86.7742C151.567 86.7742 150.508 87.5818 149.828 88.2428C149.842 86.9042 149.811 85.6708 149.593 84.747C149.388 83.8178 149.518 83.3006 149.955 81.8017L150.107 81.2762C150.303 80.5627 150.693 80.0538 151.23 79.3458C151.968 78.3778 152.887 77.1748 153.323 75.3163C153.813 73.2918 153.669 71.7984 153.528 70.352C153.476 69.8403 153.423 69.301 153.398 68.6788L153.346 67.2158C153.29 65.4955 153.246 64.0104 152.823 61.8421L152.632 60.8769C152.206 58.7004 151.836 56.8225 150.281 54.4524C148.951 52.4639 147.9 51.0673 145.569 49.8283C145.018 49.5268 144.446 49.2834 143.862 49.1009C142.919 48.7856 142.056 48.6778 141.221 48.5699L140.358 48.4538C138.884 48.238 137.557 48.4952 136.58 48.6944C135.789 48.8548 135.286 48.9847 134.891 48.7663C134.495 48.5505 134.307 48.3238 133.818 47.7043C133.558 47.3752 133.284 47.0295 132.921 46.6284C132.556 46.2357 132.307 45.8707 132.067 45.525C131.591 44.8474 131.002 44.0011 129.965 43.1631C128.859 42.2643 128.015 41.6337 126.428 41.0778C123.604 40.143 121.007 40.84 118.767 41.6337C116.931 42.2698 115.811 43.1935 114.818 44.0066C114.383 44.3662 113.924 44.7478 113.479 45.0465C113.042 45.3009 112.649 45.4779 112.279 45.6549C111.405 46.0615 110.412 46.5261 109.314 47.5024C108.551 48.1717 105.959 49.8615 105.359 50.0136C105.091 50.0025 104.825 49.8946 104.341 49.6872C103.716 49.4162 102.865 49.0539 101.88 48.9737L101.28 48.9377C101.095 48.9377 100.904 48.9488 100.763 48.9626C99.5072 49.0567 98.6249 49.466 97.975 49.7619C97.7206 49.878 97.4606 50.0108 97.1343 50.091C96.1774 50.3288 95.0988 50.3122 94.0147 50.2542C92.2806 50.1657 90.5798 50.2155 89.0199 50.658C87.7395 51.0202 86.813 51.6453 86.1382 52.1044C85.4108 52.5967 85.2366 52.6824 84.96 52.6852C84.6807 52.6852 84.4815 52.569 83.7099 51.9606C82.9466 51.3577 81.8985 50.5307 80.3525 50.1021C79.2379 49.8034 78.4442 49.7066 77.6034 49.6043L76.8374 49.5102C75.3854 49.3 74.3483 49.2143 73.1729 49.1175C72.6281 49.0732 72.0528 49.029 71.3808 48.9626L70.6009 48.9488L70.4737 48.9986C70.3824 49.0041 70.2745 49.0096 70.1556 49.0152L70.1252 48.9958C69.2402 48.3791 68.3248 47.7458 66.9807 47.0931C65.9906 46.6063 65.1858 46.2357 64.3008 45.9177C64.2621 44.9303 64.1514 43.6139 63.8555 42.7289C63.7919 42.527 63.7255 42.35 63.6398 42.1288C63.6702 42.0015 63.7255 41.7886 63.8334 41.465C64.1929 40.4251 64.7516 39.6452 64.9949 39.3327C65.1443 39.2304 65.2826 39.1419 65.4153 39.0534C65.9325 38.7215 66.5714 38.3067 67.2296 37.5931C69.0742 35.6406 69.9122 33.7572 70.1224 31.0746C70.2884 28.6795 68.9526 27.0699 68.0676 26.0024C67.8131 25.701 67.4204 25.228 67.3651 25.1672C67.484 24.6998 67.6914 24.4979 68.8475 23.7318C69.478 23.3142 70.1363 22.869 70.764 22.3186C71.4776 21.7019 72.1635 21.3119 72.9544 20.8611C74.1934 20.1559 75.5956 19.3566 76.9369 17.7415ZM12.1853 121.093C9.03806 113.734 6.93066 105.824 6.03183 97.5546C6.70941 96.2825 7.5308 95.049 8.64811 93.6883C9.44738 92.7342 10.2964 92.1562 11.2755 91.4896C12.4674 90.6766 13.8198 89.7528 15.1003 88.1515C16.638 86.2792 17.1413 84.2824 17.5479 82.6756C17.9849 80.9526 18.2338 80.0953 19.1464 79.4619C20.4186 78.5935 21.4253 78.4995 23.2506 78.328C23.9061 78.27 24.6002 78.2008 25.3663 78.0929L26.3841 77.9436C29.9738 77.4154 32.2665 77.1775 35.2507 78.0183C37.2751 78.5852 38.5224 79.5311 40.1016 80.7258C41.1414 81.514 42.3196 82.4046 43.8241 83.2647C44.9912 83.9312 45.9785 84.6668 46.9327 85.3776C49.065 86.9623 51.2692 88.5996 54.9336 89.1361C57.0355 89.4265 58.8055 88.7766 60.1468 88.2705C60.8189 88.0133 61.455 87.7726 61.8504 87.7726C61.9417 87.7726 62.0579 87.7809 62.2459 87.8833C64.0574 88.89 64.4612 89.7252 64.5359 90.2977C64.1487 90.4055 63.5872 90.5023 63.1752 90.577C61.2309 90.9172 57.6135 91.5505 57.1959 95.2758C56.9857 97.0734 57.6024 98.1991 58.1639 98.8241C59.613 100.459 62.3151 100.284 65.36 99.5985C66.6709 99.3025 68.0288 98.9928 69.1157 98.9928C69.6108 98.9928 69.9039 99.0592 70.0367 99.1062C70.8387 99.3966 71.7044 99.6095 72.5479 99.8086C72.9185 99.8944 73.4135 100.011 73.8394 100.127C73.5269 100.185 73.2061 100.243 72.9351 100.29C71.6601 100.508 70.2192 100.757 68.9 101.385C67.8601 101.869 66.9724 102.328 66.1399 102.762C64.4418 103.642 63.0977 104.339 61.0512 104.895C60.4261 105.061 59.4775 104.92 58.4791 104.751C57.6882 104.615 56.8723 104.477 56.0094 104.477C53.9684 104.477 52.3616 105.287 51.2443 106.869C48.6888 110.442 50.2044 114.179 50.9345 115.979C51.9274 118.421 54.2671 121.334 59.7486 121.334C62.3289 121.334 65.313 120.706 69.1379 119.362C71.7763 118.427 73.3223 116.737 74.5612 115.376C75.5624 114.276 76.3534 113.407 77.6311 112.838L79.0388 112.196C81.9372 110.86 84.0584 109.909 86.3373 110.982C86.9485 111.269 87.214 111.817 87.7699 113.189C88.4143 114.787 89.2993 116.978 91.7634 118.289C94.0064 119.478 96.8079 119.046 98.8545 118.46C100.082 118.109 101.067 117.807 101.781 118.225C102.53 118.67 102.84 119.273 103.409 120.484C103.918 121.566 104.549 122.91 105.769 124.188C106.134 124.572 106.477 124.945 106.806 125.305C108.827 127.52 110.741 129.611 114.527 130.507C115.072 130.634 115.628 130.698 116.181 130.698C118.117 130.698 119.674 129.926 120.924 129.304C121.997 128.773 122.824 128.375 123.499 128.585C126.323 129.509 126.909 130.142 127.174 131.27C127.407 132.175 126.45 132.935 122.904 134.647C122.34 134.921 121.779 135.192 121.245 135.469C119.339 136.45 117.912 136.572 115.752 136.757C114.89 136.829 113.969 136.91 112.976 137.045C110.971 137.297 109.159 137.731 107.406 138.151C105.384 138.638 103.473 139.094 101.811 139.094C100.149 139.094 98.8213 138.638 97.5381 137.631C96.4871 136.791 96.0004 135.897 95.3256 134.664C94.836 133.768 94.2829 132.753 93.409 131.597C92.6374 130.623 91.9736 129.224 91.332 127.866C89.916 124.871 88.1543 121.143 84.1469 121.143C83.4638 121.143 82.753 121.264 82.034 121.508C78.9199 122.556 77.8828 125.05 77.125 126.87C76.7986 127.653 76.4917 128.391 76.0768 129C75.0397 130.479 74.517 132.05 74.0524 133.436C73.2752 135.762 73.0319 136.036 72.4124 136.127C71.414 136.271 70.7862 135.847 69.301 134.774C68.8585 134.454 68.3994 134.119 67.9127 133.798C66.9558 133.162 66.3916 132.457 65.6753 131.561C64.876 130.562 63.9689 129.428 62.4838 128.361C60.8327 127.144 59.342 126.561 58.0283 126.043C56.9663 125.629 56.0482 125.269 55.0359 124.597C54.6515 124.34 54.3113 123.908 53.9159 123.405C53.017 122.266 51.6591 120.543 48.9765 120.446L48.6971 120.44C46.6755 120.44 43.8517 121.159 41.8771 124.58C41.1608 125.819 40.6602 127.493 40.1237 129.263C39.2553 132.153 38.0633 136.105 36.1965 136.105H36.1937C34.2633 135.975 28.58 130.999 25.8475 128.607C23.8895 126.892 22.1969 125.413 20.9773 124.605L20.0591 123.972C17.971 122.52 15.8194 121.024 12.9763 121.024C12.7163 121.024 12.4508 121.065 12.1853 121.093ZM88.5 171.469C56.7396 171.469 29.1552 153.614 15.2137 127.396C15.7447 127.719 16.3006 128.093 16.8952 128.505L17.8964 129.193C18.8256 129.81 20.4629 131.24 22.1969 132.758C27.9494 137.792 32.2914 141.373 35.8287 141.614C42.079 142.026 44.0868 135.25 45.4143 130.847C45.8319 129.456 46.2689 128.018 46.6616 127.332C47.3945 126.065 48.0942 125.96 48.7967 125.958C48.9516 126.041 49.3194 126.511 49.5628 126.82C50.1325 127.545 50.846 128.447 51.9606 129.191C53.4734 130.195 54.8147 130.72 56.0039 131.185C57.1433 131.63 58.1279 132.017 59.2176 132.825C60.1164 133.466 60.6861 134.183 61.3499 135.01C62.2044 136.074 63.1669 137.277 64.8484 138.4C65.2743 138.682 65.667 138.967 66.0487 139.241C67.8408 140.546 69.9067 142.054 73.184 141.597C77.3462 141 78.5161 137.501 79.2905 135.187C79.6694 134.058 80.0261 132.993 80.6207 132.139C81.373 131.038 81.8265 129.951 82.222 128.994C82.9328 127.291 83.1679 126.956 83.7929 126.746C83.9865 126.679 84.0916 126.66 84.1635 126.671C84.7249 126.848 85.7648 129.047 86.3234 130.228C87.0619 131.79 87.8999 133.56 89.0282 134.982C89.6173 135.759 90.0266 136.514 90.4664 137.311C91.2573 138.762 92.1562 140.411 94.0949 141.965C96.382 143.754 98.9015 144.626 101.805 144.626C104.123 144.626 106.344 144.095 108.689 143.53C110.296 143.143 111.961 142.745 113.689 142.529C114.608 142.405 115.437 142.336 116.214 142.267C118.62 142.065 120.891 141.868 123.778 140.38C124.271 140.126 124.785 139.877 125.305 139.628C128.748 137.963 133.953 135.449 132.54 129.951C131.467 125.377 127.399 124.044 125.192 123.325C124.495 123.104 123.778 122.99 123.062 122.99C121.201 122.99 119.68 123.745 118.457 124.354C117.395 124.882 116.507 125.288 115.786 125.125C113.667 124.622 112.619 123.474 110.885 121.577C110.534 121.19 110.166 120.794 109.773 120.377C109.17 119.743 108.819 118.997 108.412 118.131C107.716 116.649 106.85 114.804 104.604 113.468C102.347 112.127 99.4325 112.536 97.3168 113.147C96.0972 113.498 95.1126 113.808 94.3604 113.404C93.7298 113.073 93.4449 112.486 92.8973 111.123C92.2336 109.477 91.3265 107.223 88.6936 105.982C87.2333 105.296 85.7814 104.961 84.2603 104.961C81.5223 104.961 79.1881 106.04 76.7157 107.182L75.3799 107.793C73.0429 108.833 71.6186 110.398 70.4709 111.657C69.3978 112.835 68.6235 113.684 67.2987 114.151C64.1293 115.266 61.6596 115.811 59.7513 115.811C57.1848 115.811 56.4464 114.843 56.062 113.905C55.1272 111.601 55.2157 110.841 56.0122 110.019C56.4962 110.019 57.0134 110.122 57.5527 110.213C58.9963 110.456 60.8714 110.666 62.481 110.249C65.1194 109.535 66.8535 108.634 68.6898 107.68C69.4587 107.279 70.2745 106.855 71.2536 106.399C71.9035 106.092 72.9074 105.918 73.8726 105.752C76.0215 105.381 80.499 104.615 80.1727 99.9884C79.8381 95.851 76.0685 94.966 73.8145 94.435C73.1812 94.2857 72.5313 94.1419 71.909 93.9151C71.1236 93.6358 70.2662 93.492 69.2983 93.4754C69.702 92.878 69.9814 92.1368 70.0588 91.2076C70.2939 87.8224 68.5709 85.0817 64.9286 83.06C63.9606 82.5263 62.9263 82.2552 61.856 82.2552C60.44 82.2552 59.2425 82.7115 58.186 83.1153C57.2346 83.4749 56.4049 83.7736 55.7273 83.6768C53.4595 83.3449 52.1071 82.341 50.2403 80.9526C49.206 80.1838 48.0306 79.3098 46.5759 78.4746C45.3784 77.7943 44.4436 77.0835 43.4507 76.334C41.6503 74.9706 39.789 73.5573 36.7579 72.7055C32.8999 71.6214 29.6143 71.8869 25.582 72.4843L24.5892 72.6308C23.931 72.7249 23.3225 72.7802 22.7473 72.8327C20.6537 73.0291 18.491 73.231 16.0185 74.918C13.3441 76.7765 12.708 79.3015 12.1936 81.3315C11.8673 82.623 11.5824 83.7376 10.8081 84.6862C10.0254 85.6652 9.204 86.2239 8.16689 86.9319C7.35103 87.4878 6.4605 88.1073 5.54784 88.9619C5.54231 88.7987 5.53125 88.6521 5.53125 88.5C5.53125 48.0887 34.432 14.4393 72.6889 7.05511C72.9959 7.5308 73.3112 7.99266 73.6126 8.41026C74.5751 9.73777 74.8129 10.1609 74.7493 10.9408C74.6802 11.8562 74.3317 12.296 73.242 13.5516L72.7 14.1877C71.9809 15.0505 71.2425 15.4737 70.2165 16.0572C69.3093 16.5772 68.2777 17.1635 67.1438 18.1425C66.693 18.5352 66.2312 18.8339 65.7942 19.1215C64.475 19.9955 62.6663 21.1957 62.0025 23.8259C61.3277 26.5445 62.8848 28.4223 63.8168 29.5452C64.1155 29.9102 64.6216 30.5187 64.6105 30.6818C64.4999 32.0923 64.204 32.7644 63.189 33.8347C62.9926 34.0504 62.8212 34.1638 62.4257 34.421C62.1132 34.6201 61.7841 34.8358 61.419 35.1151L61.0844 35.4194C60.9184 35.5936 59.4637 37.1977 58.6008 39.7088C57.9454 41.6863 57.9177 42.7178 58.4791 44.1283L58.6008 44.4547C58.7004 44.7893 58.7944 45.9675 58.8 46.728L58.5676 50.0965L60.8189 50.658C62.2985 51.0258 63.048 51.3328 64.5608 52.0795C65.5315 52.5469 66.1703 52.9921 66.9779 53.5536L67.791 54.1039C68.8751 54.7511 69.9758 54.6377 71.1457 54.5077C71.7292 54.5658 72.2437 54.6045 72.7332 54.646C73.7979 54.729 74.7383 54.8064 76.0768 55L76.9452 55.1078C77.62 55.1908 78.1566 55.2489 78.9033 55.448C79.3292 55.5669 79.6915 55.8435 80.2916 56.3137C81.3149 57.1212 82.7171 58.2247 85.007 58.2247C87.0093 58.2109 88.3036 57.3314 89.2495 56.687C89.7971 56.3164 90.1262 56.1007 90.5355 55.9873C91.4979 55.7135 92.5987 55.7246 93.7187 55.7827C95.3339 55.8739 96.9683 55.8407 98.4839 55.4646C99.1891 55.2876 99.7506 55.0442 100.287 54.7953C100.757 54.5796 100.931 54.5049 100.99 54.4939L101.189 54.4994L101.332 54.4828C101.515 54.4966 101.8 54.6183 102.159 54.7704C102.87 55.0747 103.841 55.495 105.307 55.5448C108.291 55.5448 112.915 51.7006 112.97 51.6536C113.485 51.2 113.913 51.0009 114.627 50.6662C115.13 50.4312 115.658 50.1795 116.386 49.7564C117.149 49.2502 117.758 48.758 118.333 48.285C119.146 47.6185 119.68 47.176 120.601 46.8552C122.528 46.1693 123.446 45.9149 124.641 46.3187C125.324 46.5565 125.601 46.7474 126.483 47.4637C126.915 47.8121 127.144 48.144 127.531 48.6944C127.907 49.2337 128.306 49.7923 128.845 50.3676C129.086 50.6358 129.285 50.8875 129.473 51.1281C130.076 51.8887 130.825 52.84 132.23 53.6144C133.981 54.5658 136.124 54.4275 137.7 54.1095C138.408 53.9656 138.959 53.8329 139.548 53.9242L140.527 54.0569C141.202 54.1426 141.689 54.2062 142.161 54.3611C142.399 54.433 142.648 54.5326 142.947 54.693C144.158 55.3374 144.612 55.9126 145.677 57.5056C146.622 58.9493 146.83 60.0113 147.209 61.9417L147.405 62.929C147.74 64.6299 147.776 65.7859 147.823 67.3845L147.878 68.9083C147.908 69.6412 147.966 70.2828 148.027 70.8885C148.146 72.0998 148.224 72.9019 147.95 74.0358C147.787 74.7272 147.458 75.1835 146.838 75.9966C146.136 76.9176 145.262 78.0653 144.792 79.7827L144.653 80.2529C144.153 81.9676 143.677 83.5882 144.211 85.986C144.335 86.5198 144.31 88.0879 144.291 89.2329C144.238 92.3636 144.208 94.4323 145.519 95.7653C146.119 96.3765 146.916 96.7111 147.762 96.7111L148.619 96.6531L149.183 96.382C149.972 96.0059 150.655 95.4666 151.269 94.8692C151.291 94.919 151.31 94.966 151.329 95.0158C152.09 96.7139 153.716 97.6902 155.796 97.6902C158.075 97.6902 162.688 96.0751 163.003 93.0854C163.078 92.2972 163.047 91.5837 163.009 90.9116C162.951 89.9409 162.97 89.7528 163.155 89.4569C163.263 89.3739 163.728 89.2384 164.035 89.1527C165.003 88.8734 166.322 88.4972 167.544 87.3163C168.615 86.2543 169.093 85.1868 169.477 84.3322C169.765 83.6906 169.931 83.3393 170.268 82.9909C170.468 82.7807 170.739 82.6424 171.231 82.4073C171.369 84.4207 171.469 86.4479 171.469 88.5C171.469 134.321 134.321 171.469 88.5 171.469Z" fill="#231F20"/>
<path d="M123.427 77.8855C120.385 78.7622 119.29 81.0854 118.488 82.7835C118.059 83.6961 117.686 84.4816 117.072 85.0485C115.988 86.0607 114.939 86.6194 113.722 87.2665C112.373 87.9856 110.843 88.7987 109.262 90.2755C108.697 90.7982 108.05 91.249 107.433 91.6888C105.395 93.1352 102.312 95.3228 103.216 99.4436C103.808 102.029 105.796 103.573 108.531 103.573C110.343 103.573 112.309 102.939 114.215 102.325C115.155 102.024 116.087 101.717 116.936 101.529C121.782 100.47 125.097 99.2002 128.726 95.5551C129.124 95.1596 129.539 94.7641 129.959 94.3604C133.096 91.3735 137.83 86.8572 134.31 81.6302C131.942 78.0764 127.747 76.6438 123.427 77.8855ZM126.14 90.3557C125.692 90.7844 125.247 91.2103 124.813 91.6418C122.094 94.3742 119.818 95.2343 115.75 96.1248C114.74 96.3461 113.628 96.7001 112.514 97.0596C111.126 97.5049 109.557 98.0138 108.603 98.0387C108.661 97.7012 109.101 97.2892 110.636 96.1995C111.386 95.6657 112.24 95.0601 113.028 94.3244C114.085 93.3426 115.119 92.7895 116.319 92.1506C117.683 91.4233 119.232 90.6019 120.833 89.1029C122.227 87.8197 122.926 86.3373 123.488 85.1453C124.196 83.6491 124.414 83.3587 124.959 83.2011C125.493 83.0462 126.013 82.9688 126.505 82.9688C127.863 82.9688 128.942 83.5495 129.713 84.7083C130.427 85.7676 129.625 87.0342 126.14 90.3557Z" fill="#231F20"/>
<path d="M89.6671 146.802C89.0282 146.802 88.3811 146.902 87.7118 147.106C83.6795 148.406 83.8703 152.455 83.9699 154.632C84.0086 155.431 84.0418 156.186 83.9671 156.844C83.9035 157.444 83.7376 158.019 83.591 158.573C83.0987 160.431 82.3576 163.235 84.7996 165.642C85.9501 166.748 87.402 167.334 89.0033 167.334C91.379 167.334 94.0534 165.96 96.1746 163.645C99.4215 160.03 99.4602 154.748 96.2935 150.832C94.8167 148.954 92.7342 146.802 89.6671 146.802ZM92.0732 159.928C90.9503 161.158 89.6782 161.803 89.0033 161.803C88.8374 161.803 88.7544 161.77 88.6217 161.656C88.5636 161.402 88.7932 160.553 88.9397 159.989C89.1361 159.239 89.3629 158.387 89.4624 157.461C89.5897 156.379 89.5371 155.315 89.4956 154.372C89.4652 153.727 89.4237 152.792 89.5039 152.35C89.9685 152.267 90.5134 152.43 91.9653 154.278C93.456 156.122 93.4947 158.349 92.0732 159.928Z" fill="#231F20"/>
</g>
<defs>
<clipPath id="clip0_4_1244">
<rect width="177" height="177" fill="white"/>
</clipPath>
</defs>
</svg>
